<?xml version="1.0" encoding="UTF-8"?>
<svg width="22" height="22" viewBox="0 0 22 22" xmlns="http://www.w3.org/2000/svg" role="img" aria-labelledby="title desc">
  <title id="title">Bing Wallpaper Now tray icon</title>
  <desc id="desc">A balanced monochrome silhouette of two mountain peaks.</desc>

  <path transform="matrix(0.95694 0 0 1.12 0.4737 -2.224)" d="M1.6 19.3C0.75 19.3 0.2 18.45 0.55 17.67L6.65 4.7C6.95 4 7.45 3.6 8.05 3.6C8.65 3.6 9.15 4 9.45 4.7L11.35 11C11.7 11.8 12.45 11.8 12.8 11L14.55 7.45C14.9 6.55 15.5 6.1 16.1 6.1C16.7 6.1 17.3 6.55 17.65 7.45L21.45 17.67C21.8 18.45 21.25 19.3 20.4 19.3H1.6Z" fill="#000000"/>
</svg>
